<?xml version="1.0" encoding="utf-8"?>
<!-- Generator: Adobe Illustrator 16.0.0, SVG Export Plug-In . SVG Version: 6.00 Build 0)  -->
<!DOCTYPE svg PUBLIC "-//W3C//DTD SVG 1.1//EN" "http://www.w3.org/Graphics/SVG/1.1/DTD/svg11.dtd">
<svg version="1.1" id="Ebene_1" xmlns="http://www.w3.org/2000/svg" xmlns:xlink="http://www.w3.org/1999/xlink" x="0px" y="0px"
	 width="32px" height="32px" viewBox="0 0 32 32" enable-background="new 0 0 32 32" xml:space="preserve">
<path fill-rule="evenodd" clip-rule="evenodd" fill="#221E1B" d="M16,0.405c-8.829,0-15.988,7.159-15.988,15.99
	c0,7.065,4.581,13.057,10.935,15.172c0.8,0.146,1.091-0.348,1.091-0.771c0-0.38-0.014-1.387-0.021-2.721
	c-4.448,0.966-5.386-2.144-5.386-2.144c-0.727-1.846-1.775-2.339-1.775-2.339c-1.452-0.991,0.109-0.972,0.109-0.972
	c1.605,0.113,2.449,1.648,2.449,1.648c1.426,2.442,3.742,1.737,4.653,1.328c0.146-1.033,0.559-1.738,1.015-2.137
	c-3.55-0.405-7.283-1.775-7.283-7.903c0-1.746,0.623-3.173,1.646-4.291c-0.165-0.404-0.713-2.03,0.157-4.231
	c0,0,1.342-0.43,4.397,1.639c1.275-0.354,2.643-0.532,4.003-0.538c1.358,0.006,2.725,0.184,4.002,0.538
	c3.054-2.069,4.394-1.639,4.394-1.639c0.872,2.201,0.323,3.827,0.159,4.231c1.023,1.118,1.643,2.545,1.643,4.291
	c0,6.143-3.738,7.494-7.3,7.89c0.574,0.494,1.085,1.471,1.085,2.962c0,2.138-0.02,3.861-0.02,4.387c0,0.427,0.288,0.924,1.1,0.769
	c6.349-2.119,10.925-8.107,10.925-15.17C31.989,7.564,24.831,0.405,16,0.405z"/>
</svg>
