<?xml version="1.0" encoding="utf-8"?>
<!-- Generator: Adobe Illustrator 16.0.0, SVG Export Plug-In . SVG Version: 6.00 Build 0)  -->
<!DOCTYPE svg PUBLIC "-//W3C//DTD SVG 1.1//EN" "http://www.w3.org/Graphics/SVG/1.1/DTD/svg11.dtd">
<svg version="1.1" id="Ebene_1" xmlns="http://www.w3.org/2000/svg" xmlns:xlink="http://www.w3.org/1999/xlink" x="0px" y="0px"
	 width="32px" height="32px" viewBox="0 0 32 32" enable-background="new 0 0 32 32" xml:space="preserve">
<path fill="#231F20" d="M16.02,0.04c-8.394,0-15.271,6.473-15.925,14.698l8.565,3.542c0.726-0.496,1.603-0.786,2.546-0.786
	c0.084,0,0.168,0.002,0.252,0.007l3.809-5.521c0-0.026-0.001-0.052-0.001-0.078c0-3.323,2.704-6.027,6.027-6.027
	s6.027,2.704,6.027,6.027c0,3.323-2.704,6.027-6.027,6.027c-0.046,0-0.091-0.001-0.137-0.002l-5.433,3.876
	c0.003,0.071,0.005,0.143,0.005,0.214c0,2.495-2.029,4.523-4.523,4.523c-2.19,0-4.021-1.563-4.435-3.632l-6.125-2.532
	C2.542,27.083,8.705,32,16.02,32C24.846,32,32,24.846,32,16.02C32,7.195,24.846,0.04,16.02,0.04"/>
<path fill="#231F20" d="M10.109,24.287l-1.963-0.811c0.348,0.725,0.95,1.33,1.749,1.663c1.727,0.721,3.718-0.1,4.439-1.828
	c0.348-0.836,0.351-1.76,0.005-2.598c-0.345-0.838-0.997-1.492-1.833-1.841c-0.831-0.346-1.72-0.333-2.502-0.038l2.028,0.838
	c1.274,0.532,1.876,1.994,1.346,3.269C12.847,24.216,11.384,24.817,10.109,24.287"/>
<path fill="#231F20" d="M25.308,11.901c0-2.214-1.801-4.016-4.015-4.016c-2.215,0-4.016,1.802-4.016,4.016
	c0,2.214,1.801,4.015,4.016,4.015C23.507,15.916,25.308,14.115,25.308,11.901 M18.283,11.894c0-1.667,1.351-3.016,3.017-3.016
	s3.016,1.349,3.016,3.016s-1.35,3.017-3.016,3.017S18.283,13.561,18.283,11.894"/>
</svg>
