<?xml version="1.0" encoding="utf-8"?>
<!-- Generator: Adobe Illustrator 16.0.0, SVG Export Plug-In . SVG Version: 6.00 Build 0)  -->
<!DOCTYPE svg PUBLIC "-//W3C//DTD SVG 1.1//EN" "http://www.w3.org/Graphics/SVG/1.1/DTD/svg11.dtd">
<svg version="1.1" xmlns="http://www.w3.org/2000/svg" xmlns:xlink="http://www.w3.org/1999/xlink" x="0px" y="0px" width="60px"
	 height="30px" viewBox="0 0 60 30" enable-background="new 0 0 60 30" xml:space="preserve">
<g id="English">
	<g>
		<path fill="#00247D" d="M0,0v30h60V0H0z"/>
		<path stroke="#FFFFFF" stroke-width="6" d="M0,0l60,30 M60,0L0,30"/>
		<g>
			<defs>
				<polygon id="SVGID_1_" points="30,15 60,15 60,30 30,30 0,30 0,15 0,0 30,0 60,0 				"/>
			</defs>
			<clipPath id="SVGID_2_">
				<use xlink:href="#SVGID_1_"  overflow="visible"/>
			</clipPath>
			<path clip-path="url(#SVGID_2_)" stroke="#CF142B" stroke-width="4" d="M0,0l60,30 M60,0L0,30"/>
		</g>
		<path stroke="#FFFFFF" stroke-width="10" d="M30,0v30 M0,15h60"/>
		<path stroke="#CF142B" stroke-width="6" d="M30,0v30 M0,15h60"/>
	</g>
</g>
<g id="Ebene_2">
	
		<radialGradient id="SVGID_3_" cx="30" cy="14.5" r="29.2254" gradientTransform="matrix(1 0 0 0.5 0 7.25)" gradientUnits="userSpaceOnUse">
		<stop  offset="0" style="stop-color:#FFFFFF;stop-opacity:0"/>
		<stop  offset="1" style="stop-color:#000000;stop-opacity:0.5"/>
	</radialGradient>
	<rect x="-4" y="-9" fill="url(#SVGID_3_)" width="68" height="47"/>
</g>
</svg>
